<svg xmlns="http://www.w3.org/2000/svg" viewBox="0 0 500 500"><g id="freepik--background-simple--inject-245"><path d="M437.4,314.93s51.09-57.42,34.85-157.33-99.67-136.72-155-117.49-67.81,52.7-113,71.84-131.06,6-174,70.29,11.88,170.82,81.67,237.62S359.8,444.84,437.4,314.93Z" style="fill:#92E3A9"></path><path d="M437.4,314.93s51.09-57.42,34.85-157.33-99.67-136.72-155-117.49-67.81,52.7-113,71.84-131.06,6-174,70.29,11.88,170.82,81.67,237.62S359.8,444.84,437.4,314.93Z" style="fill:#fff;opacity:0.7000000000000001"></path></g><g id="freepik--Floor--inject-245"><path d="M460.34,457.86H33.12a.38.38,0,0,1-.38-.38.37.37,0,0,1,.38-.37H460.34a.36.36,0,0,1,.37.37A.37.37,0,0,1,460.34,457.86Z" style="fill:#263238"></path></g><g id="freepik--Plant--inject-245"><path d="M47.6,299.09s-2.63,7.24-8.23,8.23-15.47-9.88-9.22-15.48S45,295.14,47.6,299.09Z" style="fill:#92E3A9"></path><path d="M38.62,307.88c-3.63,0-8.1-3.8-9.95-7.61-1.68-3.44-1.25-6.65,1.15-8.8a7.17,7.17,0,0,1,5.88-1.86c5,.63,10.08,5.85,12.32,9.2a.48.48,0,0,1,0,.45c-.11.3-2.8,7.52-8.61,8.55A4.61,4.61,0,0,1,38.62,307.88Zm-3.91-17.33a6.18,6.18,0,0,0-4.22,1.67c-2.81,2.51-1.78,5.85-.92,7.62,2,4.12,6.72,7.5,9.71,7,4.7-.82,7.26-6.45,7.76-7.67-2.2-3.2-6.94-8-11.46-8.55A6.53,6.53,0,0,0,34.71,290.55Z" style="fill:#263238"></path><path d="M56.16,263.54s-8.23,20.07-4.94,29.95,23.7,17.12,29.63,4.28-7.24-30.94-12.18-34.89S57.81,260.24,56.16,263.54Z" style="fill:#92E3A9"></path><path d="M69.45,305.17l-1,0c-7.77-.43-15.69-5.59-17.66-11.49-3.32-9.94,4.61-29.48,5-30.3v0a6.36,6.36,0,0,1,4.47-3.16,10.53,10.53,0,0,1,8.8,2.34c5,4,18.36,22.4,12.32,35.49C79.15,302.64,75,305.17,69.45,305.17ZM56.61,263.74c-.27.69-8.07,20.13-4.91,29.59,1.81,5.46,9.49,10.4,16.76,10.81,3.24.17,9.1-.44,11.93-6.58,5.81-12.59-7.13-30.37-12-34.29a9.62,9.62,0,0,0-8-2.15A5.43,5.43,0,0,0,56.61,263.74Z" style="fill:#263238"></path><path d="M104.22,272.09s-14.16,12.84-15.8,25.68,7.9,17.45,17.77,15.8S121,286.91,118,275.39,104.22,272.09,104.22,272.09Z" style="fill:#92E3A9"></path><path d="M102.39,314.39c-4.4,0-8.23-1.34-10.85-3.86-3.06-2.95-4.32-7.39-3.62-12.82,1.65-12.88,15.38-25.46,16-26l0,0c.22-.17,5.52-4.14,9.93-2.6,2.25.78,3.83,2.86,4.68,6.16,2.14,8.33.23,24.77-5.45,33.49-2,3.11-4.31,4.9-6.8,5.31A24,24,0,0,1,102.39,314.39Zm2.15-41.91c-.57.52-14.05,13-15.63,25.35-.65,5.12.5,9.26,3.33,12,3.13,3,8.19,4.21,13.87,3.27,2.2-.37,4.27-2,6.13-4.87,5.54-8.52,7.41-24.57,5.32-32.7-.76-3-2.12-4.8-4-5.47C109.74,268.72,104.86,272.24,104.54,272.48Z" style="fill:#263238"></path><path d="M106.85,343.19s-15.8.66-16.46,8.23,6.92,9.22,14.49,2.64S113.43,343.52,106.85,343.19Z" style="fill:#92E3A9"></path><path d="M95.87,358.68a6.53,6.53,0,0,1-3-.67c-2.21-1.12-3.27-3.48-3-6.63.68-7.92,16.27-8.66,16.93-8.69h0c2.67.13,4.26.87,4.72,2.2.71,2.06-1.38,5.18-6.4,9.53C102,357.2,98.68,358.68,95.87,358.68Zm11-15c-.66,0-15.36.84-16,7.77-.24,2.72.63,4.72,2.45,5.65,2.78,1.41,7.18.06,11.21-3.44,6-5.25,6.41-7.55,6.1-8.46C110.26,344.1,108.38,343.77,106.85,343.7Z" style="fill:#263238"></path><path d="M90.86,353.68l-.41-.91c.51-.23,12.57-5.73,18.18-6.72l.17,1C103.32,348,91,353.63,90.86,353.68Z" style="fill:#263238"></path><path d="M110.37,392.73S98.77,382,92.93,386.86s-1.66,11.4,8.35,12.13S114.78,397.64,110.37,392.73Z" style="fill:#92E3A9"></path><path d="M104.87,399.63c-1.09,0-2.3,0-3.63-.14-5.82-.42-10.12-2.81-11.22-6.22-.76-2.35.16-4.76,2.59-6.79,6.11-5.1,17.62,5.44,18.1,5.89l0,0c1.78,2,2.38,3.64,1.76,4.9C111.74,398.86,109.23,399.63,104.87,399.63Zm-8.21-13.54a5.15,5.15,0,0,0-3.41,1.16C91.16,389,90.35,391,91,393c1,3,5,5.14,10.34,5.52,8,.58,9.88-.77,10.3-1.63.52-1.07-.57-2.64-1.59-3.77C109.62,392.72,102.26,386.09,96.66,386.09Z" style="fill:#263238"></path><path d="M109,396.82c-4.55-3.2-17.24-8-17.37-8l.35-.94c.53.2,12.94,4.88,17.59,8.16Z" style="fill:#263238"></path><path d="M49.15,389.57s16-14.81,24-8.09,2.3,15.71-11.5,16.72S43.08,396.33,49.15,389.57Z" style="fill:#92E3A9"></path><path d="M56.84,398.89c-5.94,0-9.45-1-10.46-3.11-.82-1.66,0-3.86,2.4-6.54l0,0c.67-.61,16.42-15,24.7-8.11,3.29,2.75,4.54,6,3.52,9.16-1.49,4.63-7.35,7.87-15.3,8.45C60,398.82,58.32,398.89,56.84,398.89Zm-7.33-9c-2.1,2.34-2.85,4.16-2.23,5.42s3.26,3.16,14.38,2.36c7.41-.54,13.07-3.58,14.42-7.75.88-2.75-.26-5.62-3.21-8.09C65.37,375.59,50.1,389.39,49.51,389.92Z" style="fill:#263238"></path><path d="M50.9,395.05l-.57-.81c6.39-4.51,23.47-10.95,24.2-11.22l.35.93C74.7,384,57.19,390.62,50.9,395.05Z" style="fill:#263238"></path><path d="M67.68,359s-1.65,7.9-7.57,10.86S43.65,366.57,49.25,357,64.72,355,67.68,359Z" style="fill:#92E3A9"></path><path d="M56.81,371.09a10.35,10.35,0,0,1-7.39-3.18c-2.79-3-3-7-.6-11.14,1.79-3.06,4.16-4.7,7-4.86,5-.28,10.14,4,12.22,6.79a.48.48,0,0,1,.09.4c-.07.33-1.77,8.17-7.84,11.2A7.74,7.74,0,0,1,56.81,371.09Zm-.49-18.19h-.41c-2.52.14-4.62,1.61-6.23,4.36-2.17,3.7-2,7.32.47,10s6.8,3.65,9.74,2.18c5.1-2.55,6.93-9,7.25-10.3C65,356.42,60.47,352.9,56.32,352.9Z" style="fill:#263238"></path><path d="M53.86,334.31s-3-6.59-14.49-2.31-16.13,10.87-8.89,13.17S53.86,334.31,53.86,334.31Z" style="fill:#92E3A9"></path><path d="M32.37,345.94a6.71,6.71,0,0,1-2-.29c-3.11-1-3.79-2.62-3.82-3.82-.08-3.36,4.9-7.4,12.69-10.3C51,327.14,54.28,334,54.31,334.1a.51.51,0,0,1-.14.6C53.56,335.19,40.3,345.94,32.37,345.94Zm14.05-14.89a19.81,19.81,0,0,0-6.87,1.42c-8.35,3.1-12.1,7-12,9.34,0,1.57,1.72,2.44,3.13,2.88,6.34,2,20.27-8.69,22.57-10.51C52.66,333.3,50.82,331.05,46.42,331.05Z" style="fill:#263238"></path><path d="M33.17,341.32l-.65-.77c6.64-5.64,18.57-7,19.08-7l.1,1C51.58,334.52,39.57,335.87,33.17,341.32Z" style="fill:#263238"></path><path d="M86.77,255.31s2,4.6,5.93,3.62,4.93-6.92,11.19-5.27,11.52,8.89,11.52,5.6-7.9-11.85-16.79-11.85S87.1,251,86.77,255.31Z" style="fill:#92E3A9"></path><path d="M114.91,260.61c-.74,0-1.72-.76-3.3-2-2-1.57-4.86-3.72-7.85-4.51-3.59-.94-5.26.76-7,2.55a8.61,8.61,0,0,1-3.91,2.72c-3.45.87-5.77-2.18-6.51-3.91a.59.59,0,0,1,0-.23c.43-5.55,4.59-8.36,12.35-8.36,8.93,0,17.29,8.49,17.29,12.35,0,.24,0,1-.57,1.25A.91.91,0,0,1,114.91,260.61Zm-13.07-7.74a8.59,8.59,0,0,1,2.18.31c3.18.84,6.08,3.05,8.2,4.67a10.87,10.87,0,0,0,2.67,1.75s0-.13,0-.34c0-2.78-7.33-11.35-16.29-11.35-7.19,0-10.9,2.39-11.34,7.31.32.67,2.08,4,5.3,3.22A7.77,7.77,0,0,0,96,256C97.47,254.51,99.09,252.87,101.84,252.87Z" style="fill:#263238"></path><path d="M74.93,352.26a46.07,46.07,0,0,0-1.47-4.76C67.78,332.33,54.09,334.77,54,334.8l-.19-1c.15,0,14.66-2.62,20.64,13.33A45.1,45.1,0,0,1,75.9,352Z" style="fill:#263238"></path><path d="M113,319.06s3-6.58,14.48-2.3,16.13,10.86,8.89,13.16S113,319.06,113,319.06Z" style="fill:#92E3A9"></path><path d="M134.49,330.69c-7.93,0-21.19-10.74-21.8-11.24a.52.52,0,0,1-.14-.6c0-.07,3.29-7,15.12-2.56,7.78,2.89,12.76,6.93,12.68,10.3,0,1.19-.71,2.82-3.82,3.81A6.66,6.66,0,0,1,134.49,330.69Zm-20.84-11.76c2.31,1.83,16.23,12.53,22.58,10.52,1.4-.45,3.09-1.32,3.12-2.89.06-2.32-3.68-6.24-12-9.34C117.8,313.69,114.43,317.69,113.65,318.93Z" style="fill:#263238"></path><path d="M132.73,326.08c-5.38-6.66-16.95-6.09-17.06-6.09l-.06-1c.5,0,12.2-.59,17.9,6.46Z" style="fill:#263238"></path><path d="M103.4,320.85l-.4-.91a18.5,18.5,0,0,1,10.1-1.37l-.18,1A18,18,0,0,0,103.4,320.85Z" style="fill:#263238"></path><path d="M61.05,307.6c-6.75-6.89-13.46-8-13.53-8s-10-2.58-13.68.82l-.67-.74c4.11-3.77,14.13-1.17,14.56-1.06.23,0,7.05,1.17,14,8.3Z" style="fill:#263238"></path><rect x="62.01" y="268" width="1" height="2.82" transform="translate(-57.38 20.18) rotate(-12.63)" style="fill:#263238"></rect><path d="M79.35,416.32l-1,0c0-.57,1.46-56.86,0-73.85S70.08,305.39,70,305.19l-7-31.38,1-.22,7,31.33c0,.15,6.9,20.37,8.37,37.44S79.36,415.76,79.35,416.32Z" style="fill:#263238"></path><rect x="107.24" y="281.1" width="3" height="1" transform="translate(-192.41 260.8) rotate(-64.94)" style="fill:#263238"></rect><path d="M82.79,416.25h-1c0-.52.52-51.9,2.47-66.52s9.78-37.74,9.86-38l12.09-25.92.91.42L95,312.12c-.06.18-7.85,23.19-9.79,37.73S82.8,415.74,82.79,416.25Z" style="fill:#263238"></path><path d="M85.74,416.35l-1-.06c1.94-33.08,5.37-62.82,5.41-63.12l1,.12C91.12,353.58,87.69,383.3,85.74,416.35Z" style="fill:#263238"></path><path d="M74.43,416.26l-1,0c0-.48,1-47.27-1-53.52-.67-2.17-1.57-3.47-2.61-3.77a2.11,2.11,0,0,0-1.85.43l-.12.09-.15,0c-.09,0-8.91,1.11-12,6.12l-.85-.53c3.2-5.12,11.42-6.4,12.63-6.56a3.13,3.13,0,0,1,2.66-.53c1.4.4,2.5,1.9,3.29,4.44C75.39,368.82,74.47,414.32,74.43,416.26Z" style="fill:#263238"></path><path d="M76.89,416.32l-1-.05c0-.46,2.34-46.16-.19-60.36l1-.17C79.24,370.05,76.91,415.86,76.89,416.32Z" style="fill:#263238"></path><path d="M87.2,416.32c0-2.8-.6-68.77,5.26-84.42a21.17,21.17,0,0,1,7.67-10.37l.56.82a20.21,20.21,0,0,0-7.29,9.9c-5.8,15.48-5.2,83.38-5.2,84.06Z" style="fill:#263238"></path><path d="M81.31,416.31l-1-.13C81.71,406,78.9,347.09,71,324.37a46.35,46.35,0,0,0-8.26-14.92l.76-.65A47.17,47.17,0,0,1,71.94,324C79.89,346.88,82.7,406.11,81.31,416.31Z" style="fill:#263238"></path><path d="M82.79,416.25h-1c0-.57.35-57.72.82-85.95l1,0C83.14,358.54,82.8,415.68,82.79,416.25Z" style="fill:#263238"></path><path d="M83.67,326.76l-1,0c.39-22.77.76-38.69,1.09-47.31.86-22.32,2.11-24.24,2.64-24.55.52-1.19,3.12-5.76,12.45-5.16l-.06,1c-9.68-.62-11.47,4.52-11.54,4.74l-.25.75-.19-.19c-.41,1.09-1.36,5.52-2,23.45C84.43,288.08,84.06,304,83.67,326.76Z" style="fill:#263238"></path><path d="M70.58,348.31s-8.23-7.34-4.94-10.95,23.7-6.25,29.62-1.56S88,347.11,83.08,348.55,72.22,349.51,70.58,348.31Z" style="fill:#92E3A9"></path><path d="M76.55,349.93c-2.81,0-5.24-.46-6.27-1.22a.05.05,0,0,1,0,0c-.23-.2-5.67-5.1-5.87-9a3.47,3.47,0,0,1,.9-2.63c3.56-3.91,24.13-6.51,30.3-1.62a3.67,3.67,0,0,1,1.63,3.7c-.86,4.41-10.22,8.82-14,9.92A24.25,24.25,0,0,1,76.55,349.93Zm-5.66-2c1.49,1.06,7.17,1.58,12,.15,4.26-1.24,12.56-5.48,13.28-9.15A2.72,2.72,0,0,0,95,336.19c-5.61-4.44-25.8-1.93-28.94,1.51a2.54,2.54,0,0,0-.65,1.9C65.54,343,70.55,347.61,70.89,347.92Z" style="fill:#263238"></path><path d="M78.49,344.49h-1a15.53,15.53,0,0,1,.19-2.26l1,.15A13.66,13.66,0,0,0,78.49,344.49Z" style="fill:#263238"></path><path d="M79.37,339.33l-1-.29a37.53,37.53,0,0,1,2.15-5.53l.89.45A38.15,38.15,0,0,0,79.37,339.33Z" style="fill:#263238"></path><path d="M70.58,396.29s-8.23-7.34-4.94-10.94,23.7-6.26,29.62-1.57S88,395.09,83.08,396.53,72.22,397.5,70.58,396.29Z" style="fill:#92E3A9"></path><path d="M76.55,397.91c-2.81,0-5.24-.46-6.27-1.21l0,0c-.23-.21-5.67-5.11-5.87-9a3.47,3.47,0,0,1,.9-2.63c3.56-3.91,24.13-6.51,30.3-1.62a3.68,3.68,0,0,1,1.63,3.7c-.86,4.41-10.22,8.83-14,9.92A24.25,24.25,0,0,1,76.55,397.91Zm-5.66-2c1.49,1.06,7.17,1.58,12,.15,4.26-1.24,12.56-5.48,13.28-9.15A2.72,2.72,0,0,0,95,384.17c-5.61-4.44-25.8-1.93-28.94,1.51a2.54,2.54,0,0,0-.65,1.9C65.54,391,70.55,395.59,70.89,395.9Z" style="fill:#263238"></path><path d="M78.49,392.48h-1c0-4.8,2.94-10.74,3.07-11l.89.45C81.42,382,78.49,387.92,78.49,392.48Z" style="fill:#263238"></path><path d="M76.7,376s-5.59-5-3.35-7.43,16.09-4.25,20.11-1.06-4.91,7.67-8.27,8.65S77.82,376.82,76.7,376Z" style="fill:#92E3A9"></path><path d="M80.75,377.27a8.38,8.38,0,0,1-4.34-.87l0,0c-.16-.14-3.9-3.51-4-6.24a2.53,2.53,0,0,1,.65-1.9c2.44-2.68,16.56-4.47,20.79-1.12a2.66,2.66,0,0,1,1.17,2.68c-.64,3.23-7.36,6.2-9.61,6.85A16.53,16.53,0,0,1,80.75,377.27ZM77,375.61c1,.68,4.83,1,8,.07,2.78-.81,8.44-3.69,8.9-6.09a1.68,1.68,0,0,0-.8-1.69c-3.77-3-17.32-1.31-19.43,1a1.58,1.58,0,0,0-.4,1.18C73.42,372,76,374.7,77,375.61Z" style="fill:#263238"></path><path d="M82.24,373.41h-1c0-3.3,2-7.36,2.1-7.53l.89.45S82.24,370.35,82.24,373.41Z" style="fill:#263238"></path><rect x="68.97" y="408.09" width="22.28" height="49.4" style="fill:#263238"></rect><path d="M91.25,458H69a.5.5,0,0,1-.5-.5V408.09a.5.5,0,0,1,.5-.5H91.25a.5.5,0,0,1,.5.5v49.39A.5.5,0,0,1,91.25,458Zm-21.78-1H90.75V408.59H69.47Z" style="fill:#263238"></path></g><g id="freepik--Pictures--inject-245"><path d="M159.8,229.89H59.46a.37.37,0,0,1-.37-.38V104.71a.37.37,0,0,1,.37-.38H159.8a.37.37,0,0,1,.37.38v124.8A.37.37,0,0,1,159.8,229.89Zm-100-.75h99.58V105.08H59.84Z" style="fill:#263238"></path><path d="M154.63,223.46h-90a.38.38,0,0,1-.37-.38V111.14a.37.37,0,0,1,.37-.37h90a.36.36,0,0,1,.37.37V223.08A.37.37,0,0,1,154.63,223.46ZM65,222.71h89.24V111.52H65Z" style="fill:#263238"></path><path d="M129.75,192.51H89.51a.37.37,0,0,1-.37-.37v-50a.37.37,0,0,1,.37-.38h40.24a.38.38,0,0,1,.38.38v50A.38.38,0,0,1,129.75,192.51Zm-39.86-.75h39.49v-49.3H89.89Z" style="fill:#263238"></path><path d="M433.85,237.8H383a.37.37,0,0,1-.37-.38V174.11a.37.37,0,0,1,.37-.38h50.9a.38.38,0,0,1,.38.38v63.31A.38.38,0,0,1,433.85,237.8Zm-50.52-.75h50.15V174.48H383.33Z" style="fill:#263238"></path><path d="M431.23,234.53H385.57a.38.38,0,0,1-.37-.37V177.37a.38.38,0,0,1,.37-.37h45.66a.37.37,0,0,1,.37.37v56.79A.37.37,0,0,1,431.23,234.53ZM386,233.78h44.9v-56H386Z" style="fill:#263238"></path><path d="M418.61,218.83H398.2a.37.37,0,0,1-.38-.37V193.07a.37.37,0,0,1,.38-.37h20.41a.37.37,0,0,1,.37.37v25.39A.37.37,0,0,1,418.61,218.83Zm-20-.75h19.66V193.45H398.57Z" style="fill:#263238"></path><path d="M476,200.2H441.53a.38.38,0,0,1-.37-.38V157a.38.38,0,0,1,.37-.38H476a.38.38,0,0,1,.38.38v42.83A.38.38,0,0,1,476,200.2Zm-34.06-.75H475.6V157.36H441.91Z" style="fill:#263238"></path><path d="M474.2,198H443.31a.38.38,0,0,1-.38-.37V159.19a.38.38,0,0,1,.38-.37H474.2a.37.37,0,0,1,.37.37v38.43A.37.37,0,0,1,474.2,198Zm-30.52-.75h30.14V159.57H443.68Z" style="fill:#263238"></path><path d="M465.66,187.37H451.85a.38.38,0,0,1-.38-.38V169.81a.38.38,0,0,1,.38-.37h13.81a.37.37,0,0,1,.37.37V187A.37.37,0,0,1,465.66,187.37Zm-13.44-.75h13.06V170.19H452.22Z" style="fill:#263238"></path></g><g id="freepik--character-2--inject-245"><path d="M312.66,297.62,307,315.33S287.42,372.74,287.13,375s15.54,65,15.54,65l-2.86,6,1.43,5.14s-5.71,4.57-7.71,5.72-7.14,2.85-4.86,4.85,8,3.14,11.14,2.29a29.67,29.67,0,0,0,8.57-4,103.34,103.34,0,0,1,9.14-5.43c.86-.28,3.71.29,3.14-3.14a45.43,45.43,0,0,0-2.28-7.71s1.43-3.72.28-5.43-2.28-2.57-2.57-4-1.77-57-1.77-57l14.84-34.54,3.47,3.47s2,42.41,2.89,43.83,25.36,59.62,25.36,59.62l2.92.94,1.42,2.86s1.72,12.28,3.72,15.71,4.57,6.57,7.42,1.43,3.43-10.29.58-15.14a37,37,0,0,1-3.72-8s1.48-3.1.63-4.82-1.92-7.44-1.92-7.44-11-49.15-11.28-50.58,5.28-60.74,4.71-65.6-3.42-22.28-3.42-22.28l-49.14-5.42Z" style="fill:#263238"></path><path d="M373.25,473.77c-1.92,0-3.48-2.22-4.74-4.39-2-3.36-3.6-14.64-3.77-15.81l-1.3-2.6L360.5,450l-.09-.22c-8.46-20.1-24.65-58.41-25.32-59.55-.87-1.45-2.59-36.34-2.95-43.87l-2.81-2.81-14.51,33.76c.52,19.18,1.54,55.59,1.76,56.84a5.47,5.47,0,0,0,1.33,2.26c.36.45.76.95,1.17,1.56,1.14,1.71.14,4.84-.17,5.7a44.36,44.36,0,0,1,2.25,7.64,3.26,3.26,0,0,1-.42,2.6,3.34,3.34,0,0,1-2.48,1,4,4,0,0,0-.58.09,103.56,103.56,0,0,0-9,5.36,30,30,0,0,1-8.72,4.07c-3.34.91-9.2-.29-11.6-2.39a1.78,1.78,0,0,1-.73-1.6c.19-1.4,2.34-2.44,4.24-3.35.55-.26,1-.5,1.43-.72,1.7-1,6.25-4.56,7.39-5.46l-1.39-5,2.86-6c-1.82-7.2-15.79-62.69-15.5-65s19.1-57.45,19.9-59.8l5.63-17.62.15-6.82,50.05,5.53.06.37c0,.18,2.86,17.49,3.43,22.3.35,3-1.54,25.8-3.07,44.12-.89,10.66-1.73,20.73-1.64,21.46.28,1.39,11.16,50.06,11.27,50.55,0,.08,1.06,5.7,1.87,7.33s-.22,4.36-.53,5.08a37.94,37.94,0,0,0,3.61,7.7c2.77,4.72,2.58,10-.57,15.64-1.1,2-2.25,3-3.53,3Zm-12-24.56,2.9.94,1.57,3.2c0,.12,1.72,12.22,3.65,15.53,1,1.67,2.44,3.89,3.88,3.89h0c.87,0,1.77-.84,2.67-2.46,3-5.33,3.16-10.25.58-14.64a37.43,37.43,0,0,1-3.77-8.12l-.05-.18.08-.16c.38-.81,1.24-3.16.63-4.38-.88-1.76-1.91-7.34-2-7.58-.44-2-11-49.16-11.28-50.58-.11-.57.39-6.73,1.63-21.72,1.45-17.3,3.42-41,3.08-43.91-.52-4.39-2.95-19.32-3.37-21.88l-48.21-5.33-.15,5.94-5.65,17.71c-6.78,19.85-19.64,57.84-19.86,59.6s9.2,39.76,15.52,64.79l.05.18-2.86,6,1.47,5.28-.26.2c-.23.19-5.77,4.61-7.78,5.76-.4.23-.92.48-1.48.75-1.42.68-3.57,1.71-3.69,2.58,0,.08,0,.33.4.72,2.16,1.88,7.65,3,10.68,2.17a28.84,28.84,0,0,0,8.42-3.93,104.28,104.28,0,0,1,9.26-5.48,3.43,3.43,0,0,1,.8-.13,2.56,2.56,0,0,0,1.79-.63,2.43,2.43,0,0,0,.22-1.83,45.68,45.68,0,0,0-2.26-7.61l-.07-.18.07-.18c.37-1,1.16-3.75.34-5-.38-.57-.76-1-1.12-1.49a6.19,6.19,0,0,1-1.53-2.69c-.28-1.43-1.63-51.43-1.78-57.13v-.11l0-.1L329,341.83l4.13,4.12v.2c.8,16.75,2.22,42.19,2.83,43.62C336.79,391.16,359.38,444.79,361.25,449.21Z" style="fill:#263238"></path><path d="M401.83,137.88,392.57,135a.7.7,0,0,0-.9.54l-.27,1.52-3.35.21-.83,5.85,4.39,8.15.29.08L379,197.93l-20.85,21.35s-8.28,6.52-10,6.27a44.58,44.58,0,0,0-4.77-.25L318.69,216l-12.55-16.82-7.29-19.59-3.58-40.8,4.62-8.21-.83-5.85-3.35-.21-.15-.85a1.3,1.3,0,0,0-1.67-1l-8.41,2.59a1.26,1.26,0,0,0-.89,1.41c.2,1.34.53,3.5.67,3.92s1.74,4.83,2.75,7.6l-3,44.43,8.79,27.62,11.55,30.13,7.28,57.25s6,4.77,16.58,6.53,30.88-.75,31.89-1.76,1.25-3.77,1.25-3.77l5.28-56.49s23.35-35.91,23.85-38.67S398.29,153,398.29,153s3.35-9.2,3.56-9.83c.15-.44.51-2.81.7-4.13A1,1,0,0,0,401.83,137.88Z" style="fill:#fff"></path><path d="M338.48,305.26a58.79,58.79,0,0,1-9.32-.62c-10.56-1.76-16.56-6.43-16.81-6.63l-.16-.12,0-.21-7.28-57.19-11.53-30.07-8.82-27.74,3-44.42c-1.69-4.66-2.6-7.19-2.71-7.51s-.35-1.7-.7-4a1.77,1.77,0,0,1,1.24-2l8.41-2.59a1.8,1.8,0,0,1,2.31,1.4l.08.47,3.36.21.92,6.42-4.62,8.22,3.56,40.58L306.58,199,319,215.6l24.39,9.2a43,43,0,0,1,4.75.26c1,.13,5.67-3,9.66-6.18l20.71-21.21,12.77-45.92h0l-4.57-8.49.92-6.42,3.36-.21.2-1.14a1.2,1.2,0,0,1,1.54-.93l9.25,2.85a1.53,1.53,0,0,1,1.08,1.7c-.36,2.43-.61,3.85-.73,4.21-.2.61-3.24,9-3.54,9.78-.34,2.62-6.28,47.72-6.78,50.45s-21.16,34.6-23.86,38.74l-5.26,56.38c0,.3-.3,3-1.4,4.07C360.55,303.67,348.75,305.26,338.48,305.26Zm-25.35-7.91a39.59,39.59,0,0,0,16.19,6.31c10.78,1.79,30.36-.85,31.47-1.64.7-.7,1-2.72,1.09-3.44L367.17,242l.07-.11c9.36-14.4,23.42-36.53,23.78-38.48.49-2.72,6.72-50,6.78-50.45l0-.11c0-.09,3.35-9.19,3.55-9.81a36.77,36.77,0,0,0,.69-4,.54.54,0,0,0-.38-.6h0l-9.26-2.85a.25.25,0,0,0-.16,0,.19.19,0,0,0-.09.14l-.35,1.91-3.33.21-.75,5.28,4.2,7.81.58.15L379.4,198.19l-20.93,21.43c-1.46,1.16-8.57,6.7-10.47,6.43a45.44,45.44,0,0,0-4.7-.25l-.18,0-24.74-9.34-.09-.12-12.62-16.95-7.31-19.71-3.6-41,4.61-8.19-.75-5.28-3.33-.21-.23-1.24a.77.77,0,0,0-.37-.54.78.78,0,0,0-.65-.08l-8.41,2.58a.78.78,0,0,0-.55.86,37,37,0,0,0,.66,3.85c.07.21.6,1.7,2.74,7.57l0,.1v.11l-2.95,44.33,8.76,27.53,11.57,30.23Z" style="fill:#263238"></path><path d="M394.39,147a.5.5,0,0,1-.27-.91,3.49,3.49,0,0,0,0-2.9,6.64,6.64,0,0,0-2.34-2.32.51.51,0,0,1-.24-.55.49.49,0,0,1,.45-.38,18.61,18.61,0,0,0,4.74-.9c.24-.14.36-.28.37-.43a.86.86,0,0,0-.4-.63,38.94,38.94,0,0,0-5.28-.34.49.49,0,0,1-.49-.51.5.5,0,0,1,.5-.49h0c2.38.05,5.32.17,5.81.5a1.85,1.85,0,0,1,.85,1.5,1.52,1.52,0,0,1-.87,1.27,13.19,13.19,0,0,1-3.84.88,6,6,0,0,1,1.65,2c.71,1.59.4,3.63-.34,4.13A.54.54,0,0,1,394.39,147Z" style="fill:#263238"></path><path d="M399.2,145a13.94,13.94,0,0,1-4.86-1.59.5.5,0,1,1,.42-.9c2.08,1,4.18,1.65,4.6,1.49a4.59,4.59,0,0,0,.8-1.23.49.49,0,0,1,.65-.27.49.49,0,0,1,.27.64,5.1,5.1,0,0,1-1.06,1.61A1.12,1.12,0,0,1,399.2,145Z" style="fill:#263238"></path><path d="M291.87,135.94a.5.5,0,0,1-.49-.4,23.5,23.5,0,0,1-.49-5.09,3.09,3.09,0,0,1,1.92-2.22,4.22,4.22,0,0,1-2.09-.9,2.43,2.43,0,0,1-.76-2.43.48.48,0,0,1,.42-.33l5.28-.53a.5.5,0,0,1,.55.44.5.5,0,0,1-.45.55l-4.88.49a1.7,1.7,0,0,0,.54,1.11c.59.59,2.55.81,3.64.81a.5.5,0,0,1,.11,1c-.81.19-3.18,1-3.28,2.12a22.92,22.92,0,0,0,.47,4.8.5.5,0,0,1-.39.59Z" style="fill:#263238"></path><path d="M287.56,132.11c-1.27,0-1.67-2.32-1.78-3.32a.5.5,0,0,1,1-.11,4.41,4.41,0,0,0,.78,2.43,17.4,17.4,0,0,0,3.65-1.08.5.5,0,1,1,.36.93A18.28,18.28,0,0,1,287.56,132.11Z" style="fill:#263238"></path><path d="M390.27,206l-11.91-7.49-20.25,20.74s-8.28,6.52-10,6.27a44.58,44.58,0,0,0-4.77-.25L318.69,216l-12.55-16.82-5.85-15.72-13.65,4.15,7.19,22.62,11.55,30.13,7.28,57.25s6,4.77,16.58,6.53,30.88-.75,31.89-1.76,1.25-3.77,1.25-3.77l5.28-56.49S385.38,214.87,390.27,206Z" style="fill:#fff"></path><path d="M338.48,305.26a58.79,58.79,0,0,1-9.32-.62c-10.56-1.76-16.56-6.43-16.81-6.63l-.16-.12,0-.21-7.28-57.19-11.53-30.07L286,187.29l14.59-4.44,6,16.1L319,215.6l24.39,9.2a43,43,0,0,1,4.75.26c1,.13,5.67-3,9.66-6.18l20.48-21,12.66,8-.23.41c-4.69,8.49-21.37,34.17-22.57,36l-5.26,56.38c0,.3-.3,3-1.4,4.07C360.55,303.67,348.75,305.26,338.48,305.26Zm-25.35-7.91a39.59,39.59,0,0,0,16.19,6.31c10.78,1.79,30.36-.85,31.47-1.64.7-.7,1-2.72,1.09-3.44L367.17,242l.07-.11c.17-.27,17.23-26.51,22.37-35.65l-11.17-7-20,20.44c-1.46,1.16-8.57,6.7-10.47,6.43a45.44,45.44,0,0,0-4.7-.25l-.18,0-24.74-9.34-.09-.12-12.62-16.95L300,184.08,287.27,188l7,22.13,11.57,30.23Z" style="fill:#263238"></path><polygon points="323.37 238.15 326.23 245 318.23 284.13 323.94 296.13 331.09 284.71 329.09 245.57 333.66 239.57 326.7 230.28 323.37 238.15" style="fill:#92E3A9"></polygon><path d="M323.88,297.17l-6.17-13,0-.17,8-39-2.88-6.91,3.75-8.85,7.7,10.29-4.69,6.15,2,39.11-.08.13Zm-5.12-13.1,5.24,11,6.58-10.52-2-39.16,4.45-5.84-6.21-8.29-2.9,6.87,2.83,6.8,0,.15Z" style="fill:#263238"></path><path d="M325,222.29s-4,4.77-4.27,7-1,12.56-1,12.56l8.23-4.59,7.58,8.6s7-7.78,10.05-11.3a9.81,9.81,0,0,0,2.51-9c-.5-2.51-3.53-5.35-3.53-5.35Z" style="fill:#fff"></path><path d="M335.51,246.64l-7.69-8.71-8.69,4.83.07-.92c0-.42.75-10.33,1-12.58s4.22-7.09,4.39-7.29l.13-.16,20-2.13.17.15c.13.12,3.15,3,3.68,5.63.48,2.41.62,5.67-2.62,9.46-3,3.48-10,11.23-10.05,11.31Zm-7.47-10,7.48,8.48c1.5-1.66,7.08-7.87,9.66-10.87,2.95-3.44,2.87-6.29,2.4-8.62-.4-2-2.61-4.31-3.22-4.93l-19.14,2c-1.17,1.42-3.84,5-4,6.62-.21,1.82-.75,9-.94,11.61Z" style="fill:#263238"></path><path d="M327.81,188.59s-7.5,7.87-7.63,8.61,0,4.18-.24,4.67-5.78,6-5.78,6.64S317,212.2,317,212.2s0,12.18,1.11,12.67,7.38-.25,7.38-.25l2.46,12.67,17.34-10.57-.73-6.52s11.19-6.52,12.79-14.27-1.85-14.76-6.15-17.71-11.44-4.8-11.81-4.8.86-2.34-1-2.95-5.66.12-8.61,2.7S327.81,188.59,327.81,188.59Z" style="fill:#fff"></path><path d="M327.58,238.09l-2.51-12.92c-1.68.19-6.13.63-7.18.16s-1.4-4.76-1.41-12.93c-1.87-2.06-2.82-3.36-2.82-3.89s.51-1.13,3.94-4.79c.83-.89,1.78-1.9,1.9-2.09a20,20,0,0,0,.11-2.57,17.12,17.12,0,0,1,.08-1.95c.12-.72,4.13-5.06,7.56-8.67a5.79,5.79,0,0,1,2.2-5.64c3-2.65,7-3.5,9.1-2.81,1.68.57,1.41,2.26,1.29,3v0c1.74.39,7.79,2.16,11.63,4.79,4.41,3,8,10.26,6.36,18.23-1.5,7.27-10.95,13.33-12.75,14.43l.74,6.52Zm-1.71-14,2.42,12.42,16.45-10-.74-6.53.28-.17c.11-.06,11-6.49,12.56-13.93s-1.81-14.37-5.94-17.2S340,184,339.34,183.92h-.23l-.17-.2c-.2-.23-.15-.52-.09-.91.17-1,.12-1.62-.62-1.87-1.5-.5-5.12,0-8.12,2.61-2.67,2.33-1.84,4.85-1.83,4.87l.1.29-.21.22c-3.45,3.62-7.25,7.79-7.51,8.4,0,.21,0,1-.05,1.74a10,10,0,0,1-.23,3,18,18,0,0,1-2.05,2.31,50.82,50.82,0,0,0-3.66,4.15,24.33,24.33,0,0,0,2.68,3.31l.13.15v.19c0,5.51.34,11.6.89,12.26.6.25,4.5,0,7-.33Zm13.5-41.15h0Z" style="fill:#263238"></path><path d="M351.18,188.22c-4.31-3-11.44-4.8-11.81-4.8s.86-2.34-1-2.95-5.66.12-8.61,2.7-2,5.42-2,5.42.74,1,2.7-.13,3.2-2.09,7.88-.37,8.36,3.2,4.42,4.92-7.38,2-7,3.32,3,5,3,5.54-1.73,5.17-1,5.66,2.46.74,2.83,0a7.84,7.84,0,0,1,3.08-2.95c1.1-.37,4.92,1.72,4.67,3.81s-3.81,5.16-5.17,5.53-2.46.5-1.84,1.36,2.09,4.92,3.2,4.92c0,0,11.19-6.52,12.79-14.27S355.48,191.17,351.18,188.22Z" style="fill:#263238"></path><path d="M344.67,220.7h-.13c-1,0-1.84-1.57-2.9-3.77a11.68,11.68,0,0,0-.71-1.36,1,1,0,0,1-.21-1c.2-.57.91-.75,1.81-1l.52-.14c1.26-.34,4.59-3.28,4.8-5.11a2.6,2.6,0,0,0-1.23-2.07,4.56,4.56,0,0,0-2.79-1.21,7.52,7.52,0,0,0-2.78,2.7,1.29,1.29,0,0,1-.89.66,3.75,3.75,0,0,1-2.67-.47c-.71-.47-.43-1.91.46-4.95.14-.47.29-1,.31-1.14s-.61-1.07-1.06-1.82a19.66,19.66,0,0,1-1.88-3.56c-.36-1.33,1.22-1.83,3.4-2.52a36.18,36.18,0,0,0,3.89-1.39c1.31-.58,1.37-1,1.37-1,0-.85-3.62-2.18-5.77-3-4.17-1.54-5.4-.83-7.1.14l-.35.2c-2.32,1.31-3.31,0-3.35,0l-.07-.14c0-.13-1.06-3.18,2.11-5.95s7-3.5,9.1-2.81c1.68.57,1.41,2.26,1.29,3v0c1.74.39,7.79,2.16,11.63,4.79h0c4.41,3,8,10.26,6.36,18.23s-12.57,14.33-13,14.6Zm-3-5.8a.25.25,0,0,1,.07.09,14.3,14.3,0,0,1,.79,1.51c.39.8,1.38,2.88,1.91,3.17,1.39-.85,11-6.91,12.39-13.84,1.56-7.55-1.81-14.37-5.94-17.2h0c-4.08-2.8-10.91-4.64-11.56-4.71h-.23l-.17-.2c-.2-.23-.15-.52-.09-.91.17-1,.12-1.62-.62-1.87-1.5-.5-5.12,0-8.12,2.61a4.8,4.8,0,0,0-1.86,4.78c.16.11.74.42,2-.3l.34-.2c1.87-1.06,3.34-1.9,7.95-.21,4,1.47,6.37,2.46,6.42,3.88,0,1-1.11,1.6-2,2a38.6,38.6,0,0,1-4,1.44c-1.33.42-2.84.9-2.73,1.29a20,20,0,0,0,1.77,3.32c.95,1.59,1.2,2,1.2,2.35a7.19,7.19,0,0,1-.35,1.4c-.28.94-1,3.44-.79,3.91a2.93,2.93,0,0,0,1.78.27c.13,0,.23-.09.25-.15a8.37,8.37,0,0,1,3.37-3.2c.9-.3,2.6.47,3.73,1.38a3.55,3.55,0,0,1,1.6,3c-.27,2.29-4,5.53-5.53,6l-.54.14A5.11,5.11,0,0,0,341.68,214.9Zm-2.31-32h0Z" style="fill:#263238"></path><path d="M325.09,202.49c-.14.91-.63,1.58-1.1,1.51s-.74-.86-.6-1.77.63-1.58,1.1-1.51S325.23,201.58,325.09,202.49Z" style="fill:#263238"></path><path d="M327,199.05a.48.48,0,0,1-.4-.2,2.31,2.31,0,0,0-1.49-1,2.6,2.6,0,0,0-1.74.49.5.5,0,0,1-.61-.79,3.52,3.52,0,0,1,2.48-.69,3.22,3.22,0,0,1,2.16,1.4.5.5,0,0,1-.11.7A.46.46,0,0,1,327,199.05Z" style="fill:#263238"></path><path d="M322,214.11a8,8,0,0,1-2.38-.33.5.5,0,0,1-.31-.63.51.51,0,0,1,.64-.31,8.63,8.63,0,0,0,5.9-.6.49.49,0,0,1,.66.24.5.5,0,0,1-.24.67A10.19,10.19,0,0,1,322,214.11Z" style="fill:#263238"></path><path d="M321.41,214.05s-.61,2.33.49,2.95,3.2-3.57,3.2-3.57Z" style="fill:#263238"></path><path d="M322.14,217.56a1,1,0,0,1-.48-.12c-1.4-.79-.8-3.24-.73-3.52a.52.52,0,0,1,.4-.37l3.69-.61a.52.52,0,0,1,.49.19.53.53,0,0,1,0,.53c-.29.57-1.78,3.45-3.06,3.85A1.41,1.41,0,0,1,322.14,217.56Zm-.31-3.08c-.13.71-.18,1.81.32,2.08.33,0,1.18-1,2-2.47Z" style="fill:#263238"></path><polygon points="325.47 224.63 330.76 224.01 326.7 230.28 325.47 224.63" style="fill:#263238"></polygon><path d="M326.7,230.78h-.09a.49.49,0,0,1-.4-.38L325,224.73a.52.52,0,0,1,.08-.4.51.51,0,0,1,.35-.2l5.29-.62a.51.51,0,0,1,.49.24.49.49,0,0,1,0,.53l-4.06,6.27A.48.48,0,0,1,326.7,230.78Zm-.62-5.72.85,3.94,2.83-4.37Z" style="fill:#263238"></path><polygon points="298.85 179.6 282.81 184.73 285.1 192.16 303.09 185.3 298.85 179.6" style="fill:#fff"></polygon><path d="M284.78,192.81l-2.59-8.41L299,179l4.85,6.51Zm-1.35-7.76,2,6.45,16.88-6.43-3.63-4.88Z" style="fill:#263238"></path><polygon points="376.5 195.3 371.93 201.87 389.36 211.87 391.51 203.46 376.5 195.3" style="fill:#fff"></polygon><path d="M389.68,212.63,371.21,202l5.14-7.39,15.74,8.56Zm-17-10.92L389,211.1l1.89-7.39L376.66,196Z" style="fill:#263238"></path><path d="M351.94,241.5h-.07a.51.51,0,0,1-.43-.57c.84-5.85-.83-15.17-.85-15.26a.5.5,0,0,1,.4-.59.5.5,0,0,1,.58.41c.07.39,1.72,9.57.86,15.58A.5.5,0,0,1,351.94,241.5Z" style="fill:#263238"></path><path d="M346.8,251.79a.47.47,0,0,1-.17,0,.51.51,0,0,1-.31-.64c1.67-4.73,2.26-19.13,2.26-19.28a.48.48,0,0,1,.52-.48.5.5,0,0,1,.48.52c0,.6-.59,14.7-2.31,19.57A.5.5,0,0,1,346.8,251.79Z" style="fill:#263238"></path><path d="M313.38,242.36a.5.5,0,0,1-.5-.5c0-4.9,4.55-16.67,4.75-17.17a.5.5,0,0,1,.64-.29.5.5,0,0,1,.29.65c-.05.12-4.68,12.1-4.68,16.81A.51.51,0,0,1,313.38,242.36Z" style="fill:#263238"></path><path d="M316.52,251.79a.51.51,0,0,1-.49-.4c-1.15-5.47,2.14-21,2.28-21.63a.52.52,0,0,1,.6-.39.5.5,0,0,1,.38.6c0,.15-3.39,15.95-2.28,21.21a.5.5,0,0,1-.39.59Z" style="fill:#263238"></path><path d="M305.38,240.87a.51.51,0,0,1-.5-.5V222.43a.5.5,0,0,1,.5-.5.51.51,0,0,1,.5.5v17.94A.5.5,0,0,1,305.38,240.87Z" style="fill:#263238"></path></g><g id="freepik--character-1--inject-245"><path d="M152,218.31a12.26,12.26,0,0,0,5.34-10,12.92,12.92,0,0,0-25.82,0,12.11,12.11,0,0,0,2,6.69c-6.24,2.32-10.65,7.91-10.65,14.45,0,6.31,4.1,11.73,10,14.19a10,10,0,0,0-4.33,8.19,10.71,10.71,0,0,0,21.39,0,10,10,0,0,0-3.83-7.82c6.41-2.25,11-7.91,11-14.56A14.92,14.92,0,0,0,152,218.31Z" style="fill:#263238"></path><path d="M139.26,262.49a11,11,0,0,1-11.19-10.7,10.43,10.43,0,0,1,3.86-8.08,16,16,0,0,1-9.52-14.3c0-6.39,4.07-12.1,10.41-14.7a12.47,12.47,0,0,1-1.8-6.44,13.42,13.42,0,0,1,26.82,0,12.77,12.77,0,0,1-5.06,10.08,15.28,15.28,0,0,1,4.81,11.06c0,6.35-4.18,12.18-10.49,14.73a10.48,10.48,0,0,1,3.36,7.65A11,11,0,0,1,139.26,262.49Zm5.17-66.14A12.19,12.19,0,0,0,132,208.27a11.54,11.54,0,0,0,2,6.41l.35.52-.59.23c-6.27,2.33-10.33,7.82-10.33,14a15.14,15.14,0,0,0,9.68,13.73l.83.35-.73.52a9.46,9.46,0,0,0-4.12,7.78,10.21,10.21,0,0,0,20.39,0,9.52,9.52,0,0,0-3.64-7.43l-.7-.56.85-.3c6.45-2.27,10.62-7.8,10.62-14.09a14.37,14.37,0,0,0-4.92-10.73l-.47-.42.52-.36a11.85,11.85,0,0,0,5.12-9.63A12.19,12.19,0,0,0,144.43,196.35Z" style="fill:#263238"></path><path d="M149.44,389.11l-1.37,61s-4.09,5.65-5.84,8.77-2.54,6.63-1.95,8.57,5.26,2.54,8,.78,5.06-11.69,5.65-13.83,1.36-7.21,1.36-7.21l10.14-55.74Z" style="fill:#fff"></path><path d="M144.36,469.78a7.65,7.65,0,0,1-2.6-.43,2.88,2.88,0,0,1-2-1.75c-.64-2.12.16-5.72,2-9,1.62-2.88,5.16-7.81,5.79-8.69l1.37-61.4L166,391l-10.23,56.25c0,.19-.78,5.1-1.37,7.25-.06.21-.13.49-.22.83-1.4,5.41-3.32,11.8-5.64,13.29A7.78,7.78,0,0,1,144.36,469.78Zm5.56-80.09-1.35,60.59-.09.12c0,.06-4.1,5.67-5.82,8.72s-2.46,6.35-1.9,8.19a2,2,0,0,0,1.34,1.11,7.3,7.3,0,0,0,5.9-.61c2.29-1.47,4.49-9.92,5.21-12.7.09-.35.17-.63.23-.84.57-2.1,1.34-7.11,1.35-7.16l10-55.24Z" style="fill:#263238"></path><path d="M149.05,461c-5.27,1-6-2.26-6-3.46-.29.47-.56.92-.78,1.32-1.76,3.12-2.54,6.63-1.95,8.57s5.26,2.54,8,.78,5.06-11.69,5.65-13.83C153.92,454.4,152,460.5,149.05,461Z" style="fill:#263238"></path><path d="M144.36,469.78a7.65,7.65,0,0,1-2.6-.43,2.88,2.88,0,0,1-2-1.75c-.64-2.12.16-5.72,2-9,.23-.4.5-.86.8-1.33l.82-1.33.1,1.56a3.33,3.33,0,0,0,1.17,2.43c.93.73,2.37.92,4.28.57h0c2.13-.39,4-4.67,4.48-6.29l1,.29c-.06.21-.13.49-.22.83-1.4,5.41-3.32,11.8-5.64,13.29A7.78,7.78,0,0,1,144.36,469.78Zm-1.58-10.86-.12.2c-1.67,3-2.46,6.35-1.9,8.19a2,2,0,0,0,1.34,1.11,7.3,7.3,0,0,0,5.9-.61c1.53-1,3-5.09,4.06-8.53a5.09,5.09,0,0,1-2.92,2.24h0c-2.21.4-3.91.14-5.07-.77A3.9,3.9,0,0,1,142.78,458.92Z" style="fill:#263238"></path><path d="M194.57,457.05l-7-64.51,14.85-.43-.48,60.32s5.91,4.9,7.93,6.2,6.78,5.48,6.78,6.63-3.61,1.73-7.79,1S197.74,463.1,196,462,194.71,459.79,194.57,457.05Z" style="fill:#fff"></path><path d="M212.39,467.09a22.49,22.49,0,0,1-3.63-.32c-4.18-.72-11.22-3.2-13-4.41-1.59-1.06-1.6-2.1-1.62-3.82,0-.43,0-.9,0-1.45l-7.08-65,15.91-.46-.48,60.61c1,.83,5.93,4.87,7.7,6,1.5,1,7,5.43,7,7.05a1.15,1.15,0,0,1-.47.91C216,466.77,214.35,467.09,212.39,467.09ZM188.1,393l7,64c0,.57,0,1.07,0,1.51,0,1.62,0,2.23,1.18,3,1.69,1.13,8.64,3.56,12.64,4.25,3.41.59,6.33.27,7.09-.37.07-.06.11-.11.11-.15-.07-.84-4.35-4.79-6.55-6.21-2-1.3-7.73-6-8-6.23l-.18-.15.47-60.05Z" style="fill:#263238"></path><path d="M198.46,457.48a51.54,51.54,0,0,1-4.21-3.47l.32,3c.14,2.74-.29,3.75,1.44,4.9s8.65,3.6,12.83,4.32,7.79.15,7.79-1-4.76-5.33-6.78-6.63l-4.61,2.45A35.23,35.23,0,0,1,198.46,457.48Z" style="fill:#263238"></path><path d="M212.39,467.09a22.49,22.49,0,0,1-3.63-.32c-4.18-.72-11.22-3.2-13-4.41-1.59-1.06-1.6-2.1-1.62-3.82,0-.43,0-.91,0-1.47l-.46-4.31,1,.88a48.16,48.16,0,0,0,4.17,3.43h0a33.67,33.67,0,0,0,6.46,3.46l4.67-2.48.24.16c1.5,1,7,5.43,7,7.05a1.15,1.15,0,0,1-.47.91C216,466.77,214.35,467.09,212.39,467.09Zm-17.51-11.85.19,1.75c0,.6,0,1.1,0,1.54,0,1.62,0,2.23,1.18,3,1.69,1.13,8.64,3.56,12.64,4.25,3.41.59,6.33.27,7.09-.37.07-.06.11-.11.11-.15-.06-.81-4-4.52-6.31-6.05l-4.55,2.42-.21-.08a35.45,35.45,0,0,1-6.89-3.66h0C197.2,457.19,196.1,456.31,194.88,455.24Z" style="fill:#263238"></path><path d="M164.51,287.56s-12.34,17.9-14.76,26.13-.73,78.37-.73,78.37,21,3.39,31,3.15A228.68,228.68,0,0,0,203,393s1.93-16.69,2.42-27.09,6.77-38,3.63-52.49-12-27.27-12-27.27Z" style="fill:#263238"></path><path d="M178.94,395.72c-10.21,0-29.79-3.13-30-3.16l-.41-.07v-.41c-.07-2.87-1.66-70.33.75-78.53s14.32-25.54,14.82-26.27l.14-.21,33.08-1.4.15.23c.09.12,8.91,13,12,27.44,2.21,10.16-.12,26.25-2,39.17-.8,5.52-1.49,10.29-1.63,13.45-.48,10.3-2.41,27-2.43,27.13l0,.38-.38.06c-.13,0-13.21,1.94-23,2.18Zm-29.43-4.09c3,.47,21.48,3.29,30.46,3.08a226.32,226.32,0,0,0,22.54-2.12c.3-2.55,1.94-17.28,2.38-26.67.15-3.21.84-8,1.64-13.55,1.76-12.17,4.16-28.83,2-38.82-2.86-13.2-10.55-25.08-11.74-26.86l-32,1.36c-1.38,2-12.32,18.2-14.55,25.78C148,321.56,149.38,385.81,149.51,391.63Z" style="fill:#263238"></path><path d="M233.91,212.59s-.95,42.09-1.17,44.51-33.49-2.42-33.49-2.42,0,15-.44,18.94-.88,7.05-.88,8.59a8.07,8.07,0,0,1-.88,4c-.66,1.32-3.3,3.74-13.88,5.51s-16.74-1.55-17.62-2.65S164,283.1,164,283.1l-7.88-19L145.84,283.7l-3,17.07-2.4,19.05a13.6,13.6,0,0,0,1.2,2.49c1,1.63,4.12,5.06,4.29,5.66a19.92,19.92,0,0,1,.17,3.35c0,.94,0,6-.17,6.78s-.94-.78-.94-.78a5.84,5.84,0,0,1-.86,1.81c-.51.6-.86-.86-.86-.86-.51,1.63-.85,1.29-1.11,1.46s-.69-3.26-.69-3.26-.17.94-.34,1.8a1.16,1.16,0,0,1-.81,1c-.88-.7-.53-6.84-.53-6.84s-2.46-2.29-3.34-3.16-1.93-5.45-1.93-5.45-1.4-38.27-1.4-39.15,13-38.09,13-39.32,17.56-7.73,17.56-7.73l20.54-4.39s12.69-1.12,13.9-.51,23.65,9.62,23.65,9.62l6.59-33.1s.46-6.36.91-7a26.76,26.76,0,0,0,2.58-5c.15-.91.45-3.18,1.36-2.88s1.52,1.82,1.36,3-1.51,3.33-1.51,3.94,8.49-1.82,7.88,2-1.06,6.67-1.82,7.27S233.91,212.59,233.91,212.59Z" style="fill:#fff"></path><path d="M142.2,340.31l-.29-.12c-.17-.08-.34-.16-.55-1.16a1.53,1.53,0,0,1-1,.72l-.23.05-.19-.15c-.93-.75-.83-5-.72-7-.58-.54-2.43-2.26-3.18-3-.93-.93-1.88-4.9-2.06-5.68-.07-1.66-1.42-38.39-1.42-39.27,0-.42,1.28-4.27,5.71-17.29,3.2-9.44,7.19-21.19,7.28-22.05,0-.37,0-1.56,17.88-8.18l20.61-4.41c3.07-.27,13-1.09,14.23-.47,1.08.54,19.58,8,23.06,9.38l6.47-32.51c.17-2.37.53-6.54,1-7.17a26.72,26.72,0,0,0,2.48-4.78l0-.19c.21-1.28.47-2.57,1.17-3a1,1,0,0,1,.82-.09c1.21.41,1.87,2.21,1.7,3.57a9.84,9.84,0,0,1-1,2.57c-.14.28-.3.63-.42.9l1-.1c2-.21,5-.54,6.25.73a2,2,0,0,1,.49,1.83v.11c-.71,4.44-1.13,6.79-2,7.47a27.53,27.53,0,0,1-5,2c-.1,4.37-1,41.87-1.17,44.19a.78.78,0,0,1-.33.57c-2.32,1.84-26.84-1.55-33.15-2.46,0,2.83,0,14.87-.44,18.42-.13,1.15-.25,2.22-.37,3.2-.28,2.39-.51,4.27-.51,5.33a8.57,8.57,0,0,1-.93,4.19c-.85,1.7-4,4.07-14.24,5.78-10.54,1.76-17-1.5-18.1-2.82-.91-1.14-1.53-5.39-1.64-6.13l-7.44-17.92-9.76,18.55-3,17-2.39,18.91a14.14,14.14,0,0,0,1.13,2.29,31,31,0,0,0,2.53,3.32,11.39,11.39,0,0,1,1.8,2.45,18.1,18.1,0,0,1,.19,3.49c0,2.76,0,6.2-.18,6.89a.69.69,0,0,1-.58.6c-.11,0-.37,0-.73-.37a4.42,4.42,0,0,1-.6,1,.77.77,0,0,1-.8.3.88.88,0,0,1-.41-.25,1.22,1.22,0,0,1-.86.65Zm-.65-7.14.41,3.24c.12.95.29,2,.43,2.64a3.92,3.92,0,0,0,.4-.93l.54-1.73.42,1.76a2.83,2.83,0,0,0,.14.44,6.5,6.5,0,0,0,.61-1.4l.35-1.23.58,1.14.07.15c.05-.83.09-2.51.09-5.93a21.14,21.14,0,0,0-.15-3.21,23.5,23.5,0,0,0-1.61-2.09,33.5,33.5,0,0,1-2.63-3.46A13.77,13.77,0,0,1,140,320l0-.1,2.42-19.15,3.06-17.25L156.19,263,164.51,283c.24,1.82.85,5,1.43,5.7.83,1,7,4.16,17.15,2.46,10.73-1.78,13-4.25,13.51-5.23a7.51,7.51,0,0,0,.83-3.75c0-1.12.23-3,.52-5.45.11-1,.24-2.05.37-3.19.43-3.89.43-18.74.43-18.89v-.58l.58.09c15.09,2.19,31.4,3.82,32.92,2.78.22-3.16,1.15-44,1.16-44.39v-.36l.35-.11a31.68,31.68,0,0,0,5-1.91c.6-.48,1.12-3.72,1.62-6.85l0-.11a1.05,1.05,0,0,0-.23-1c-.87-.92-3.83-.59-5.42-.42-1.37.15-1.78.18-2.05-.07l-.17-.15,0-.27a5,5,0,0,1,.64-1.74,9.82,9.82,0,0,0,.88-2.26c.13-1-.39-2.29-1-2.5-.11.06-.38.44-.68,2.3l0,.19a26.23,26.23,0,0,1-2.67,5.22,43.55,43.55,0,0,0-.81,6.71L222.13,243l-.56-.23c-.92-.36-22.48-9-23.69-9.64-.75-.33-7.52,0-13.64.57l-20.48,4.38c-7.85,2.91-16.4,6.45-17.17,7.36-.19,1.12-2.38,7.68-7.33,22.23-2.73,8.05-5.56,16.37-5.65,17,0,.81,1.39,38.7,1.4,39.08.39,1.62,1.22,4.55,1.79,5.11.86.86,3.3,3.13,3.32,3.15l.17.16v.23a26.08,26.08,0,0,0,.2,6.11,1.15,1.15,0,0,0,.15-.38c.17-.85.34-1.79.34-1.79Zm5-87.83v0Z" style="fill:#263238"></path><path d="M143.76,338.29l-1,0s.14-3.62.14-4.39v-2.44h1v2.44C143.9,334.65,143.77,338.14,143.76,338.29Z" style="fill:#263238"></path><rect x="144.4" y="330.78" width="1" height="6.55" transform="translate(-7.58 3.39) rotate(-1.31)" style="fill:#263238"></rect><rect x="140.96" y="332.07" width="1" height="4.4" style="fill:#263238"></rect><path d="M223.22,235l-1.47,7.37s-22.44-9-23.65-9.62-13.9.51-13.9.51l-20.54,4.39s-17.56,6.5-17.56,7.73-13,38.44-13,39.32c0,.3.16,4.8.37,10.65l9.72,3.37,2.64-15,10.29-19.57,7.88,19s.66,4.84,1.54,5.94,7,4.41,17.62,2.65,13.22-4.19,13.88-5.51a8.07,8.07,0,0,0,.88-4c0-1.54.44-4.62.88-8.59s.44-18.94.44-18.94,33.27,4.85,33.49,2.42c.09-1,.32-9.28.55-18.41Z" style="fill:#fff"></path><path d="M143.59,299.34,133,295.67v-.34c-.25-7-.37-10.4-.37-10.67,0-.42,1.28-4.27,5.71-17.29,3.2-9.44,7.19-21.19,7.28-22.05,0-.37,0-1.56,17.88-8.18l20.61-4.41c3.07-.27,13-1.09,14.23-.47,1.08.54,19.58,8,23.06,9.38l1.46-7.35,10.95,4.06v.36c-.29,11.34-.47,17.55-.56,18.44a.78.78,0,0,1-.33.57c-2.32,1.84-26.84-1.55-33.15-2.46,0,2.83,0,14.87-.44,18.42-.13,1.15-.25,2.22-.37,3.2-.28,2.39-.51,4.27-.51,5.33a8.57,8.57,0,0,1-.93,4.19c-.85,1.7-4,4.07-14.24,5.78-10.54,1.76-17-1.5-18.1-2.82-.91-1.14-1.53-5.39-1.64-6.13l-7.44-17.92-9.76,18.55ZM134,295l8.85,3.07,2.59-14.56L156.19,263,164.51,283c.24,1.82.85,5,1.43,5.7.83,1,7,4.16,17.15,2.46,10.73-1.78,13-4.26,13.51-5.23a7.51,7.51,0,0,0,.83-3.75c0-1.12.23-3,.52-5.45.11-1,.24-2.05.37-3.19.43-3.89.43-18.74.43-18.89v-.58l.58.09c15.09,2.19,31.4,3.82,32.92,2.78.05-.82.19-4.68.53-17.93l-9.18-3.41L222.13,243l-.56-.23c-.92-.36-22.48-9-23.69-9.64-.74-.33-7.52,0-13.64.57l-20.48,4.38c-7.85,2.91-16.4,6.45-17.17,7.36-.19,1.12-2.38,7.67-7.33,22.23-2.73,8.05-5.56,16.37-5.65,17C133.61,284.91,133.73,288.37,134,295Zm12.6-49.46Zm0-.15v0Z" style="fill:#263238"></path><path d="M236.55,201.06s-.17,2.46.42,2.63a8.46,8.46,0,0,0,3.95-.37,1.84,1.84,0,0,0,.47-2.35C241.05,200.21,237.4,200.63,236.55,201.06Z" style="fill:#fff"></path><path d="M238.08,204.27a5.17,5.17,0,0,1-1.24-.1c-.66-.19-.92-1.24-.79-3.15l0-.28.26-.13a9.56,9.56,0,0,1,4.86-.38,1,1,0,0,1,.65.54,2.3,2.3,0,0,1-.67,3A7.34,7.34,0,0,1,238.08,204.27Zm-.89-1a8.5,8.5,0,0,0,3.47-.34c.6-.35.48-1.24.27-1.71-.37-.3-2.87-.1-3.9.23A5.4,5.4,0,0,0,237.19,203.23Z" style="fill:#263238"></path><path d="M241.47,203.43a1.29,1.29,0,0,1,.43,1.45,2.2,2.2,0,0,1-1.62,1.69c-.68.17-3.31,0-3.64-.59s-.51-2.21.33-2.29S241.47,203.43,241.47,203.43Z" style="fill:#fff"></path><path d="M239.45,207.13c-1.14,0-2.84-.19-3.25-.9a3,3,0,0,1-.15-2.43,1.12,1.12,0,0,1,.87-.61c.86-.08,4.38-.25,4.53-.25h.15l.14.08a1.79,1.79,0,0,1,.64,2,2.69,2.69,0,0,1-2,2.06A4.9,4.9,0,0,1,239.45,207.13Zm1.84-3.19c-.78,0-3.55.18-4.27.25,0,0,0,0-.08.07a2.1,2.1,0,0,0,.13,1.47,6.55,6.55,0,0,0,3.09.36,1.7,1.7,0,0,0,1.25-1.33A.9.9,0,0,0,241.29,203.94Z" style="fill:#263238"></path><path d="M241.05,206.49a2.67,2.67,0,0,1,.25,1.53c-.17.68-1.53,1.27-2.46,1.18s-2.54-.42-2.54-.93,1-1.78,1-1.78Z" style="fill:#fff"></path><path d="M239,209.71h-.23c-.91-.08-3-.38-3-1.43a4.83,4.83,0,0,1,1.12-2.09l.15-.19h4.29l.13.28a3,3,0,0,1,.3,1.87C241.56,209,240.15,209.71,239,209.71Zm-2.21-1.52a5.67,5.67,0,0,0,2.07.52,2.38,2.38,0,0,0,1.93-.81,1.77,1.77,0,0,0-.11-.91h-3.15A5.71,5.71,0,0,0,236.82,208.19Z" style="fill:#263238"></path><path d="M240.11,209.2s.85-.25.68.6-1,1.87-1.78,1.87-2.71-.77-2.54-1.53a2,2,0,0,1,.59-1.1Z" style="fill:#fff"></path><path d="M239,212.17a4.47,4.47,0,0,1-2.79-1.24,1,1,0,0,1-.24-.9,2.51,2.51,0,0,1,.77-1.39l.15-.11,3.17.17a1.11,1.11,0,0,1,1,.2,1,1,0,0,1,.25,1C241.07,211,240.05,212.17,239,212.17Zm-1.75-2.62a1.85,1.85,0,0,0-.31.7,3.42,3.42,0,0,0,2.06.92c.46,0,1.16-.8,1.29-1.47v0l-.06,0-.08,0h-.08Z" style="fill:#263238"></path><path d="M231.66,210.43l-.4-.92s1.92-.86,2.35-2.24a7.89,7.89,0,0,0,.16-3.24l1-.18a8.67,8.67,0,0,1-.18,3.72C234,209.38,231.76,210.38,231.66,210.43Z" style="fill:#263238"></path><line x1="199.25" y1="254.68" x2="195.11" y2="243.88" style="fill:#fff"></line><rect x="196.68" y="243.49" width="1" height="11.57" transform="translate(-76.25 87.24) rotate(-21)" style="fill:#263238"></rect><line x1="156.13" y1="264.13" x2="161.36" y2="256.83" style="fill:#fff"></line><rect x="154.26" y="259.98" width="8.98" height="1" transform="translate(-145.47 238.02) rotate(-54.42)" style="fill:#263238"></rect><polygon points="163.13 220.46 165.49 230.84 182.74 227.51 179.8 221.83 163.13 220.46" style="fill:#fff"></polygon><path d="M165.1,231.43l-2.61-11.53,17.62,1.45,3.38,6.53ZM163.77,221l2.1,9.25L182,227.15l-2.5-4.85Z" style="fill:#263238"></path><polygon points="172.35 235.35 181.95 267.9 176.85 271.03 170.39 235.94 172.35 235.35" style="fill:#92E3A9"></polygon><path d="M176.5,271.84l-6.69-36.25,2.87-.86,9.86,33.39ZM171,236.29l6.25,33.93,4.15-2.55L172,236Z" style="fill:#263238"></path><polygon points="165.09 236.33 167.64 280.44 179.8 278.87 172.35 235.35 165.09 236.33" style="fill:#92E3A9"></polygon><path d="M167.17,281l-2.6-45.11,8.19-1.11,7.62,44.51Zm-1.55-44.24,2.49,43.11,11.11-1.44-7.29-42.53Z" style="fill:#263238"></path><polygon points="184.89 225.36 161.56 229.87 163.13 238.49 186.07 233.59 184.89 225.36" style="fill:#92E3A9"></polygon><path d="M162.73,239.09,161,229.47l24.33-4.7,1.32,9.21Zm-.59-8.83,1.39,7.63,22-4.69-1-7.25Z" style="fill:#263238"></path><path d="M173.72,182.62s4.31-3.73,8.23-2.74,6.86,6.66,4.9,10.19-8.23,2.16-8.23,2.16l-5.49-6.87Z" style="fill:#263238"></path><path d="M181.34,193a14.07,14.07,0,0,1-2.83-.28l-.17,0-5.75-7.19.67-3.14.13-.11c.19-.16,4.56-3.89,8.68-2.85a8.24,8.24,0,0,1,5.19,4.84,6.89,6.89,0,0,1,0,6.08C186.07,192.52,183.41,193,181.34,193Zm-2.44-1.22c1,.18,5.93.91,7.52-1.94a6,6,0,0,0-.08-5.21,7.22,7.22,0,0,0-4.51-4.26c-3.26-.81-6.94,2-7.66,2.54l-.5,2.34Z" style="fill:#263238"></path><path d="M156.86,185.76s-6.47,3.72-7.84,9.41,4.7,17.44,6.08,20,5.48,5.88,10.78,8.24,11.56,2.94,14.7,1,3.92-13.73,4.12-18.43-5.49-17.06-6.67-19.61S167.25,178.31,156.86,185.76Z" style="fill:#fff"></path><path d="M175.39,226a24.63,24.63,0,0,1-9.72-2.19c-5.08-2.26-9.51-5.65-11-8.45-1.78-3.32-7.51-14.6-6.12-20.35s7.57-9.43,8.06-9.71c6.54-4.69,12.46-4.08,15.41-3.3,3.44.91,5.86,2.75,6.49,4.09,2.58,5.6,6.88,15.62,6.71,19.84-.26,6.18-1.17,16.84-4.36,18.83A10.5,10.5,0,0,1,175.39,226Zm-7.59-43.53a18.06,18.06,0,0,0-10.65,3.65l0,0c-.06,0-6.3,3.69-7.61,9.09-1.33,5.55,4.79,17.34,6,19.65,1.4,2.61,5.64,5.83,10.54,8,5.37,2.39,11.36,2.81,14.23,1,2-1.26,3.47-8,3.89-18,.12-2.93-2.29-10-6.62-19.38-.44-.94-2.54-2.67-5.83-3.54A15.61,15.61,0,0,0,167.8,182.51Z" style="fill:#263238"></path><path d="M179.21,189c-.52-1.17-.94-2.1-1.18-2.62-1.17-2.54-10.78-8-21.17-.58,0,0-6.47,3.72-7.84,9.41-1.28,5.31,3.94,15.93,5.75,19.38l2.09-4.09s3.72-2.16,2.94-4.12-5.29-4.31-2.35-10S170.69,184.3,179.21,189Z" style="fill:#263238"></path><path d="M154.77,215.63l-.45-.85c-2.17-4.14-7.09-14.36-5.79-19.73,1.41-5.83,7.81-9.57,8.08-9.73,6.51-4.66,12.44-4.06,15.39-3.28,3.44.91,5.86,2.75,6.49,4.09.23.52.66,1.45,1.18,2.62l.6,1.35-1.3-.71a13.59,13.59,0,0,0-10.63-.82c-4.41,1.34-8.71,4.64-10.45,8-2,4-.26,6.13,1.19,7.86a7.26,7.26,0,0,1,1.18,1.72c.86,2.14-2.25,4.2-3,4.66Zm13-33.12a18.06,18.06,0,0,0-10.65,3.65c-.1.07-6.34,3.72-7.65,9.12-1.15,4.79,3.27,14.26,5.27,18.17l1.71-3.35.13-.08c.87-.5,3.23-2.23,2.73-3.49a6.75,6.75,0,0,0-1-1.46c-1.46-1.75-3.67-4.4-1.31-9,1.86-3.58,6.4-7.08,11-8.5a14.76,14.76,0,0,1,10.16.3c-.26-.58-.48-1-.62-1.36-.44-.94-2.54-2.67-5.83-3.54A15.61,15.61,0,0,0,167.8,182.51Z" style="fill:#263238"></path><path d="M159.8,212s-5.1-6.28-8-4.32-.78,6.47.59,7.84,4.71,1.57,5.69.59" style="fill:#fff"></path><path d="M155.91,217.26a5.83,5.83,0,0,1-3.91-1.35,8.29,8.29,0,0,1-2.18-5.79,3.7,3.7,0,0,1,1.66-2.82c3.29-2.19,8.49,4.14,8.71,4.41l-.78.63c-1.34-1.65-5.27-5.61-7.37-4.21a2.69,2.69,0,0,0-1.23,2.09,7.25,7.25,0,0,0,1.89,5c1.26,1.25,4.26,1.31,5,.59l.71.71A3.58,3.58,0,0,1,155.91,217.26Z" style="fill:#263238"></path><path d="M176.27,210.76a.5.5,0,0,1-.5-.47.5.5,0,0,1,.47-.53,9.48,9.48,0,0,0,3.51-.76,14.4,14.4,0,0,0-2.73-2.31,9.81,9.81,0,0,1-1.74-1.42c-.65-.86-.14-4.39.1-5.87a.5.5,0,0,1,1,.16c-.36,2.13-.56,4.69-.29,5.11a13.16,13.16,0,0,0,1.53,1.21c1.87,1.37,3.1,2.32,3.16,3.12a.77.77,0,0,1-.23.63c-.87.88-3.69,1.1-4.24,1.13Z" style="fill:#263238"></path><path d="M173.65,215.13a8.05,8.05,0,0,1-5.62-2.79.51.51,0,0,1,.79-.63c.11.15,3,3.61,6.87,2a.51.51,0,0,1,.65.27.5.5,0,0,1-.28.65A6.29,6.29,0,0,1,173.65,215.13Z" style="fill:#263238"></path><ellipse cx="169.6" cy="204.97" rx="1.18" ry="1.76" style="fill:#263238"></ellipse><path d="M180.58,201.83c0,1-.53,1.77-1.18,1.77s-1.17-.79-1.17-1.77.52-1.76,1.17-1.76S180.58,200.86,180.58,201.83Z" style="fill:#263238"></path><path d="M163.92,203.31l-.15,0a.5.5,0,0,1-.33-.63c0-.14,1.14-3.45,6.3-4.07a.5.5,0,0,1,.12,1c-4.53.55-5.46,3.35-5.47,3.38A.49.49,0,0,1,163.92,203.31Z" style="fill:#263238"></path><path d="M176.27,198.41a.5.5,0,0,1-.33-.12.51.51,0,0,1-.05-.71,4.71,4.71,0,0,1,3.06-1.53,3.94,3.94,0,0,1,3,1.31.5.5,0,0,1,0,.71.5.5,0,0,1-.7,0,3.07,3.07,0,0,0-2.21-1,3.81,3.81,0,0,0-2.36,1.2A.48.48,0,0,1,176.27,198.41Z" style="fill:#263238"></path></g><g id="freepik--light-bulb--inject-245"><path d="M381.06,76.23a36.31,36.31,0,1,0-64.21,23.24,35.63,35.63,0,0,1,8.27,22.84v5h39.26v-5a35.56,35.56,0,0,1,8.25-22.82A36.17,36.17,0,0,0,381.06,76.23Z" style="fill:#92E3A9"></path><path d="M364.88,127.79H324.62v-5.48a35.2,35.2,0,0,0-8.16-22.52,36.81,36.81,0,1,1,56.56,0,35.13,35.13,0,0,0-8.14,22.5Zm-39.26-1h38.26v-4.48a36.13,36.13,0,0,1,8.37-23.14,35.81,35.81,0,1,0-55,0,36.21,36.21,0,0,1,8.39,23.16Z" style="fill:#263238"></path><path d="M342.13,127.11a.37.37,0,0,1-.37-.36c-.51-11-1.27-22.42-2.11-31.11a12.49,12.49,0,0,1-1.92-2.56c-2.17-3.76-3.23-9.41-1.25-12.35.33-.48.68-.47.86-.42,1.2.34,2.23,6.83,3,15A5.45,5.45,0,0,0,344.44,97a5,5,0,0,0,3-1.53c.92-7.79,2.41-14.07,4.26-14.89a1.22,1.22,0,0,1,1.4.12c1.13,1,.38,4.7-.6,7.51a21.64,21.64,0,0,1-4.29,7.52c-1.24,10.66-1.53,24.31,0,30.45a.37.37,0,0,1-.27.45.38.38,0,0,1-.46-.27c-1.47-5.88-1.35-19.08-.17-29.81a5,5,0,0,1-2.77,1.19,5.78,5.78,0,0,1-4-1.37c1.05,10.91,1.74,24.37,2,30.32a.38.38,0,0,1-.36.4Zm10.2-45.92a.85.85,0,0,0-.36.09c-1.45.65-2.76,6.14-3.65,13.19A22.77,22.77,0,0,0,351.75,88c1.24-3.52,1.38-6.17.8-6.71A.33.33,0,0,0,352.33,81.19Zm-15.16-.13-.07.09c-1.6,2.37-1,7.56,1.28,11.56a13.54,13.54,0,0,0,1.14,1.67C338.76,86.82,337.93,81.61,337.17,81.06Z" style="fill:#263238"></path><rect x="325.12" y="127.3" width="39.26" height="9.71" style="fill:#fff"></rect><path d="M364.38,137.39H325.12a.38.38,0,0,1-.38-.38V127.3a.37.37,0,0,1,.38-.37h39.26a.37.37,0,0,1,.37.37V137A.38.38,0,0,1,364.38,137.39Zm-38.89-.75H364v-9H325.49Z" style="fill:#263238"></path><path d="M325.12,137h39.26a0,0,0,0,1,0,0v7.2a2.51,2.51,0,0,1-2.51,2.51H327.63a2.51,2.51,0,0,1-2.51-2.51V137A0,0,0,0,1,325.12,137Z" style="fill:#fff"></path><path d="M361.87,147.12H327.63a2.89,2.89,0,0,1-2.89-2.88V137a.38.38,0,0,1,.38-.38h39.26a.38.38,0,0,1,.37.38v7.2A2.88,2.88,0,0,1,361.87,147.12Zm-36.38-9.71v6.83a2.14,2.14,0,0,0,2.14,2.13h34.24a2.14,2.14,0,0,0,2.13-2.13v-6.83Z" style="fill:#263238"></path><path d="M330.07,146.73h29.35a0,0,0,0,1,0,0V151a2.51,2.51,0,0,1-2.51,2.51H332.58a2.51,2.51,0,0,1-2.51-2.51v-4.28A0,0,0,0,1,330.07,146.73Z" style="fill:#263238"></path><path d="M356.91,154H332.58a3,3,0,0,1-3-3v-4.78h30.35V151A3,3,0,0,1,356.91,154Zm-26.34-6.79V151a2,2,0,0,0,2,2h24.33a2,2,0,0,0,2-2v-3.78Z" style="fill:#263238"></path><path d="M402.85,76.8H386.22a.38.38,0,1,1,0-.75h16.63a.38.38,0,0,1,0,.75Z" style="fill:#263238"></path><path d="M301.93,76.8H285.09a.38.38,0,1,1,0-.75h16.84a.38.38,0,1,1,0,.75Z" style="fill:#263238"></path><path d="M344,34.6a.38.38,0,0,1-.38-.38V17.54a.38.38,0,0,1,.38-.37.37.37,0,0,1,.37.37V34.22A.37.37,0,0,1,344,34.6Z" style="fill:#263238"></path><path d="M374.12,46.65a.38.38,0,0,1-.26-.11.37.37,0,0,1,0-.53l11.48-11.49a.37.37,0,1,1,.53.53L374.39,46.54A.4.4,0,0,1,374.12,46.65Z" style="fill:#263238"></path><path d="M302.33,118.44a.38.38,0,0,1-.26-.65l11.65-11.65a.37.37,0,0,1,.53.53L302.6,118.33A.4.4,0,0,1,302.33,118.44Z" style="fill:#263238"></path><path d="M313.48,46.31a.37.37,0,0,1-.26-.1L302.07,35.05a.37.37,0,0,1,0-.53.39.39,0,0,1,.53,0l11.15,11.15a.4.4,0,0,1,0,.54A.38.38,0,0,1,313.48,46.31Z" style="fill:#263238"></path><path d="M385.6,118.44a.38.38,0,0,1-.26-.11l-11.11-11.11a.39.39,0,0,1,0-.53.38.38,0,0,1,.54,0l11.1,11.1a.4.4,0,0,1,0,.54A.39.39,0,0,1,385.6,118.44Z" style="fill:#263238"></path></g></svg>